#!OML:ASF H:\Terrain\Patient Classification 1\PLAYGROUND\JustinFriday\JustinFriday.ASF
:FULLY-SPECIFIED
:DEGREES
307
root -5.55097 17.8569 10.2787 102.266 -84.4039 -123.31
lowerback 14.1258 0.116443 0.137144
upperback -3.56128 0.428393 2.37389
thorax -11.8989 0.291235 2.42517
lowerneck -1.16939 -7.72196 -9.6275
upperneck 9.98626 -11.0438 8.36662
head 4.16706 -5.56698 3.58851
rclavicle 1.38839e-015 1.54244e-014
rhumerus 48.3185 0.265579 -72.8768
rradius 97.3454
rwrist 17.131
rhand 2.80285 -25.419
rfingers 7.12502
rthumb 28.2722 -53.3056
lclavicle 1.38839e-015 1.54244e-014
lhumerus 44.9641 2.85198 68.9137
lradius 98.6631
lwrist -21.3704
lhand 14.0455 -1.40795
lfingers 7.12502
lthumb 38.9524 24.1257
rfemur 2.51825 -2.91697 23.8938
rtibia 71.3793
rfoot -1.26006 -9.86184
rtoes 18.9907
lfemur -2.42047 5.26036 -2.56096
ltibia 78.2613
lfoot -1.51053 -0.407844
ltoes -0.618426
308
root -5.73891 17.8962 10.312 91.0294 -84.5644 -113.167
lowerback 14.6144 -0.305575 0.507419
upperback -3.81103 -0.0528671 2.41133
thorax -12.4559 0.0432462 2.38798
lowerneck 0.0126312 -7.54633 -9.82674
upperneck 10.0502 -10.9384 8.39019
head 3.99184 -5.56404 3.68363
rclavicle 3.80176e-015 4.62174e-015
rhumerus 47.0459 0.686034 -72.9789
rradius 97.6515
rwrist 16.9399
rhand 3.06372 -24.8038
rfingers 7.12502
rthumb 28.5214 -52.6488
lclavicle 3.80176e-015 4.62174e-015
lhumerus 43.9315 3.12829 69.848
lradius 98.9266
lwrist -19.3795
lhand 16.7819 -4.77306
lfingers 7.12502
lthumb 41.5262 19.9737
rfemur 2.87394 -4.3174 23.5476
rtibia 71.9402
rfoot -1.63143 -10.4716
rtoes 17.7681
lfemur -2.37165 3.99405 -2.87779
ltibia 78.1466
lfoot -1.53222 -0.141945
ltoes -0.681734
309
root -5.93535 17.943 10.3347 82.1367 -84.5107 -105.383
lowerback 14.9587 -0.624109 0.786214
upperback -3.94949 -0.410555 2.48082
thorax -12.8104 -0.140113 2.40935
lowerneck 0.944377 -7.48558 -9.77708
upperneck 10.1257 -10.9139 7.90111
head 3.83006 -5.6 3.56764
rclavicle 5.46658e-015 -1.16289e-014
rhumerus 45.9214 1.05579 -71.6674
rradius 99.0283
rwrist 15.9674
rhand 3.08621 -26.0323
rfingers 7.12502
rthumb 28.5429 -53.8738
lclavicle 5.46658e-015 -1.16289e-014
lhumerus 42.8549 2.73242 70.0133
lradius 99.3601
lwrist -19.858
lhand 16.3076 -3.99118
lfingers 7.12502
lthumb 41.0811 20.8994
rfemur 3.19135 -5.40255 23.3554
rtibia 72.3973
rfoot -1.04099 -10.9791
rtoes 12.9496
lfemur -2.08378 2.86743 -3.13612
ltibia 77.8815
lfoot -1.66693 0.132293
ltoes 0.671475
310
root -6.12977 17.9865 10.3368 89.9453 -84.2902 -113.901
lowerback 14.8987 -0.387766 0.613406
upperback -4.18345 -0.0905816 2.8067
thorax -13.0574 0.0405384 2.79455
lowerneck 1.91764 -7.35351 -10.5158
upperneck 10.2407 -10.8639 8.04192
head 3.74763 -5.63187 3.76791
rclavicle -1.39149e-015 3.24019e-014
rhumerus 44.9166 1.72238 -71.3808
rradius 99.3354
rwrist 15.5786
rhand 2.4196 -26.8764
rfingers 7.12502
rthumb 27.9058 -54.8231
lclavicle -1.39149e-015 3.24019e-014
lhumerus 41.5358 2.58988 70.1227
lradius 100.086
lwrist -20.0397
lhand 16.4934 -3.36277
lfingers 7.12502
lthumb 41.2554 21.4719
rfemur 2.84685 -4.81127 23.5999
rtibia 72.8281
rfoot -0.602266 -11.4393
rtoes 12.3992
lfemur -1.62522 3.52215 -2.81398
ltibia 77.5275
lfoot -1.83074 -0.00581653
ltoes 0.892175
311
root -6.31793 18.0229 10.3522 90.4995 -84.2024 -115.288
lowerback 15.0625 -0.432864 0.51448
upperback -4.46644 -0.138759 3.03666
thorax -13.485 0.0424451 3.13515
lowerneck 3.25825 -7.21044 -10.9884
upperneck 9.91655 -10.7928 7.92321
head 3.44387 -5.65626 3.87191
rclavicle 7.7526e-015 -2.96189e-014
rhumerus 43.6364 2.40032 -70.9394
rradius 100.184
rwrist 14.9804
rhand 2.17423 -27.2384
rfingers 7.12502
rthumb 27.6712 -55.2229
lclavicle 7.7526e-015 -2.96189e-014
lhumerus 40.0048 2.50767 70.1349
lradius 100.823
lwrist -20.3609
lhand 16.6722 -3.14151
lfingers 7.12502
lthumb 41.4233 21.6388
rfemur 2.79513 -4.8133 23.6019
rtibia 73.0537
rfoot -0.532017 -12.0392
rtoes 14.2375
lfemur -1.38737 3.47753 -2.85035
ltibia 77.1814
lfoot -1.94755 0.0900568
ltoes -0.00683277
312
root -6.50853 18.0649 10.3657 91.4231 -84.4776 -117.084
lowerback 15.2487 -0.485783 0.113623
upperback -4.69165 -0.277303 3.09761
thorax -13.8539 0.022201 3.483
lowerneck 4.34354 -7.00794 -11.3127
upperneck 9.75798 -10.6167 7.59735
head 3.20476 -5.621 3.88094
rclavicle -1.0138e-014 1.86858e-014
rhumerus 42.8523 2.94122 -70.9942
rradius 100.3
rwrist 15.0758
rhand 2.94578 -26.2291
rfingers 7.12502
rthumb 28.4087 -54.093
lclavicle -1.0138e-014 1.86858e-014
lhumerus 38.5867 2.4963 69.9864
lradius 101.458
lwrist -20.7087
lhand 16.6807 -3.22195
lfingers 7.12502
lthumb 41.4313 21.5558
rfemur 2.77273 -5.09771 23.0614
rtibia 73.1367
rfoot 0.177365 -12.4261
rtoes 13.0228
lfemur -1.1379 3.36353 -3.4115
ltibia 76.7842
lfoot -2.1576 0.450731
ltoes 0.365991
313
root -6.70019 18.1191 10.3748 93.9374 -84.9179 -120.291
lowerback 15.2222 -0.476609 -0.589532
upperback -4.92485 -0.399294 3.17206
thorax -14.1018 0.038259 4.01022
lowerneck 5.33128 -6.70009 -12.9927
upperneck 9.71698 -10.444 8.29326
head 3.13833 -5.60806 4.40385
rclavicle 1.21259e-014 -1.98785e-014
rhumerus 41.952 3.60452 -70.7951
rradius 100.933
rwrist 15.3046
rhand 3.49711 -26.5216
rfingers 7.12502
rthumb 28.9355 -54.2964
lclavicle 1.21259e-014 -1.98785e-014
lhumerus 37.2929 2.44872 69.6601
lradius 102.135
lwrist -20.8656
lhand 16.693 -2.62353
lfingers 7.12502
lthumb 41.4428 22.1505
rfemur 2.53978 -5.67234 22.0927
rtibia 73.1696
rfoot 1.68135 -11.8668
rtoes 7.33725
lfemur -0.995199 3.36519 -4.2077
ltibia 76.3777
lfoot -2.31655 0.566742
ltoes 2.17619
314
root -6.88929 18.1779 10.3901 93.2119 -85.0532 -120.18
lowerback 15.1346 -0.599784 -0.83614
upperback -5.19543 -0.602263 3.3085
thorax -14.3509 -0.0190732 4.37019
lowerneck 6.4003 -6.53405 -12.4222
upperneck 9.64855 -10.3084 7.73092
head 2.87517 -5.57085 4.19602
rclavicle -1.51076e-014 5.32743e-014
rhumerus 40.9919 4.42262 -70.4218
rradius 101.64
rwrist 14.9984
rhand 2.60978 -27.6557
rfingers 7.12502
rthumb 28.0876 -55.5727
lclavicle -1.51076e-014 5.32743e-014
lhumerus 36.0891 2.34625 69.351
lradius 102.692
lwrist -20.7604
lhand 16.6969 -2.11897
lfingers 7.12502
lthumb 41.4465 22.6538
rfemur 2.29214 -6.64421 21.4854
rtibia 73.0334
rfoot 3.51921 -10.7739
rtoes -1.47153
lfemur -1.01156 3.24701 -4.57297
ltibia 75.9063
lfoot -2.54581 0.758578
ltoes 1.60712
315
root -7.0705 18.1794 10.4078 90.6015 -84.999 -118.436
lowerback 15.2862 -0.776129 -0.949307
upperback -5.37966 -0.836356 3.55587
thorax -14.642 -0.0943444 4.79659
lowerneck 7.15533 -6.16382 -14.1168
upperneck 9.9542 -10.09 8.32427
head 2.93752 -5.54572 4.67634
rclavicle 1.94809e-014 6.36111e-015
rhumerus 40.2305 5.27717 -70.0969
rradius 102.002
rwrist 14.5797
rhand 1.67424 -27.7308
rfingers 7.12502
rthumb 27.193 -55.7911
lclavicle 1.94809e-014 6.36111e-015
lhumerus 34.8783 2.45801 69.4013
lradius 103.066
lwrist -20.5338
lhand 16.6113 -2.47917
lfingers 7.12502
lthumb 41.3662 22.3197
rfemur 2.05359 -6.17412 22.1149
rtibia 73.0588
rfoot 4.15474 -11.5491
rtoes -2.625
lfemur -1.07464 3.01171 -4.59321
ltibia 75.6661
lfoot -2.52279 0.770166
ltoes 2.12059
316
root -7.26527 18.2399 10.4161 89.2276 -85.1779 -117.969
lowerback 15.4619 -0.901991 -1.43923
upperback -5.52898 -1.08298 3.79823
thorax -14.8984 -0.137698 5.4405
lowerneck 8.72033 -5.8021 -14.1076
upperneck 9.00441 -9.70368 7.4242
head 2.32534 -5.3813 4.48694
rclavicle 3.85642e-014 -9.81996e-014
rhumerus 39.6871 6.08452 -69.6328
rradius 102.322
rwrist 14.1096
rhand 1.6558 -27.2239
rfingers 7.12502
rthumb 27.1754 -55.287
lclavicle 3.85642e-014 -9.81996e-014
lhumerus 33.5912 2.59073 69.3888
lradius 103.533
lwrist -20.5885
lhand 16.2943 -2.34409
lfingers 7.12502
lthumb 41.0686 22.5505
rfemur 2.04382 -6.16191 21.6935
rtibia 72.8958
rfoot 2.93947 -12.0182
rtoes 5.11679
lfemur -0.729603 2.68423 -5.02489
ltibia 75.0655
lfoot -2.43539 1.04482
ltoes 1.60335
317
root -7.45384 18.2898 10.424 91.0069 -85.1558 -120.371
lowerback 15.3104 -1.00822 -1.74969
upperback -5.70111 -1.26621 4.07051
thorax -14.9835 -0.172224 5.98662
lowerneck 9.29149 -5.54957 -14.4755
upperneck 9.51419 -9.55654 7.57844
head 2.39575 -5.36295 4.61145
rclavicle -7.15625e-015 -2.54444e-014
rhumerus 39.248 6.90284 -68.8611
rradius 102.91
rwrist 13.4131
rhand 1.59704 -27.643
rfingers 7.12502
rthumb 27.1192 -55.7149
lclavicle -7.15625e-015 -2.54444e-014
lhumerus 32.3661 2.80172 69.1944
lradius 104.055
lwrist -20.6884
lhand 16.2849 -2.24103
lfingers 7.12502
lthumb 41.0597 22.6563
rfemur 1.53673 -5.95444 21.6204
rtibia 72.817
rfoot 2.28228 -12.5188
rtoes 10.9314
lfemur -0.624422 2.82313 -5.26556
ltibia 74.4756
lfoot -2.45323 1.38141
ltoes -1.25557
318
root -7.63262 18.3219 10.438 89.4516 -84.9291 -119.614
lowerback 15.4445 -1.22102 -1.79345
upperback -5.85802 -1.53069 4.40575
thorax -15.2193 -0.259467 6.49279
lowerneck 9.88576 -5.30648 -14.6761
upperneck 9.8729 -9.37049 7.29666
head 2.38868 -5.31951 4.57838
rclavicle 5.56597e-015 1.82882e-014
rhumerus 38.5618 7.65645 -69.7976
rradius 102.767
rwrist 13.7144
rhand 1.88165 -26.9679
rfingers 7.12502
rthumb 27.3914 -54.997
lclavicle 5.56597e-015 1.82882e-014
lhumerus 31.1289 3.21203 69.1697
lradius 104.519
lwrist -20.5497
lhand 16.6784 -3.02052
lfingers 7.12502
lthumb 41.4291 21.7579
rfemur 1.27168 -6.12659 21.837
rtibia 72.5991
rfoot 2.2803 -12.9049
rtoes 13.418
lfemur -0.505257 2.80365 -5.19937
ltibia 73.8751
lfoot -2.42126 1.45522
ltoes -6.08141
319
root -7.81206 18.3649 10.4514 87.2772 -85.221 -118.25
lowerback 15.7824 -1.36226 -2.35476
upperback -6.11709 -1.82433 4.60891
thorax -15.6913 -0.298757 7.17962
lowerneck 11.1927 -4.82345 -15.3704
upperneck 9.46498 -8.98985 7.2074
head 2.05188 -5.17995 4.72112
rclavicle 3.4191e-014 -7.95139e-014
rhumerus 38.0993 8.52264 -68.5688
rradius 103.674
rwrist 12.8404
rhand 1.88541 -27.9919
rfingers 7.12502
rthumb 27.395 -56.0205
lclavicle 3.4191e-014 -7.95139e-014
lhumerus 29.757 3.49226 69.189
lradius 104.892
lwrist -20.5396
lhand 16.6373 -3.65033
lfingers 7.12502
lthumb 41.3906 21.1406
rfemur 1.14673 -6.13481 21.5681
rtibia 72.2688
rfoot 1.97345 -13.2809
rtoes 16.181
lfemur -0.474093 2.3931 -5.77871
ltibia 73.3025
lfoot -2.2027 1.12638
ltoes -2.98067
320
root -7.99501 18.4033 10.4621 86.5303 -85.9149 -118.314
lowerback 16.1343 -1.52748 -3.84653
upperback -6.33486 -2.34675 5.01163
thorax -16.0489 -0.32739 8.71788
lowerneck 12.0121 -4.34605 -16.1665
upperneck 9.32558 -8.5635 6.74512
head 1.85837 -5.01788 4.7366
rclavicle -5.56597e-015 -1.59028e-014
rhumerus 37.805 9.99271 -68.3765
rradius 104.058
rwrist 12.6622
rhand 2.18284 -28.0871
rfingers 7.12502
rthumb 27.6794 -56.0704
lclavicle -5.56597e-015 -1.59028e-014
lhumerus 28.0899 4.20191 68.925
lradius 105.441
lwrist -20.8846
lhand 16.0696 -2.62319
lfingers 7.12502
lthumb 40.8575 22.3383
rfemur 1.03972 -6.17029 20.6484
rtibia 71.816
rfoot 1.93213 -13.3589
rtoes 17.5357
lfemur -0.402605 2.08962 -6.82777
ltibia 72.7399
lfoot -1.90556 1.00745
ltoes 2.17639
321
root -8.17484 18.4312 10.4794 86.2891 -86.3024 -118.802
lowerback 16.3665 -1.87028 -5.2279
upperback -6.49228 -3.078 5.6419
thorax -16.1771 -0.454376 10.5311
lowerneck 12.0256 -3.86359 -16.6167
upperneck 9.82818 -7.96388 5.75058
head 1.93 -4.77402 4.49449
rclavicle -4.29375e-014 4.77083e-015
rhumerus 38.2238 12.3747 -64.4415
rradius 106.328
rwrist 10.4559
rhand 0.700689 -31.4279
rfingers 7.12502
rthumb 26.2613 -59.6305
lclavicle -4.29375e-014 4.77083e-015
lhumerus 26.3096 5.43157 68.2493
lradius 106.188
lwrist -20.8328
lhand 15.6942 -1.15721
lfingers 7.12502
lthumb 40.5047 23.9146
rfemur 0.850311 -6.5937 19.8072
rtibia 71.2128
rfoot 2.45087 -13.0003
rtoes 16.7934
lfemur -0.456642 2.02135 -7.47584
ltibia 72.2052
lfoot -2.06102 1.58426
ltoes 1.27874
